<svg xmlns="http://www.w3.org/2000/svg" viewBox="0 0 125.48 62.88"><defs><style>.cls-1,.cls-2{fill:none;stroke:#231f20;stroke-linecap:round;stroke-linejoin:round;}.cls-1{stroke-width:4px;}.cls-2{stroke-width:4.08px;}</style></defs><g id="Layer_2" data-name="Layer 2"><g id="Layer_1-2" data-name="Layer 1"><path class="cls-1" d="M71.88,60.88H48.48a6,6,0,0,1-6-6V30a6,6,0,0,1,6-6h17.4a6,6,0,0,1,6,6v9.9a6,6,0,0,1-6,6H54.48"/><path class="cls-1" d="M112.68,60.88H89.28a6,6,0,0,1-6-6V30a6,6,0,0,1,6-6h23.4"/><path class="cls-1" d="M48.18,60.88h69.3a5.91,5.91,0,0,0,5.91-6l-.5-33.3"/><path class="cls-1" d="M123.48,14.15V8a6,6,0,0,0-6-6H37.08a6,6,0,0,0-6,6V54.88a6,6,0,0,1-6,6H8a6,6,0,0,1-6-6V30a6,6,0,0,1,6-6H19.35"/><path class="cls-2" d="M113.32,13A1.06,1.06,0,1,1,114.37,14,1.07,1.07,0,0,1,113.32,13Z"/><ellipse class="cls-2" cx="102.23" cy="12.95" rx="1.06" ry="1.09"/><ellipse class="cls-2" cx="90.08" cy="12.95" rx="1.06" ry="1.09"/><ellipse class="cls-2" cx="77.93" cy="12.95" rx="1.06" ry="1.09"/><ellipse class="cls-2" cx="65.79" cy="12.95" rx="1.06" ry="1.09"/><ellipse class="cls-2" cx="53.64" cy="12.95" rx="1.06" ry="1.09"/><ellipse class="cls-2" cx="41.49" cy="12.95" rx="1.06" ry="1.09"/></g></g></svg>